<svg width="22" height="22" fill="none" xmlns="http://www.w3.org/2000/svg"><path fill-rule="evenodd" clip-rule="evenodd" d="M4.90769 17.0923c.86026-2.3974 2.85154-7.42922 3.93462-8.37691C10.1962 7.53077 16.8385 5.03462 17.05 4.99231c0 .29615-2.6231 7.10769-3.7231 8.12309-1.1 1.0154-4.82305 2.8769-8.41921 3.9769Zm5.07693-7.48845c-.20308.20308-.08462.36666 0 .42305l1.98848 1.9885c.0846.0846.1269.2538.4231.0846.5923-.4654 2.2846-4.06154 2.4961-4.95-1.1.21154-4.6538 2.2-4.90768 2.45385Z" fill="#000"/><path d="m4.90769 17.0923-.47062-.1689-.33683.9388.9537-.2918-.14625-.4781Zm3.93462-8.37691.32925.37628-.32925-.37628ZM17.05 4.99231h.5v-.6099l-.5981.11961.0981.49029ZM9.98462 10.0269l.35358-.35353-.035-.03501-.0412-.02746-.27738.416ZM14.8923 7.15l.4864.11581.1793-.75299-.7601.14618.0944.491Zm-2.4961 4.95.248.4341.032-.0182.0289-.0227-.3089-.3932Zm-7.01789 5.1612c.42729-1.1908 1.13579-3.0365 1.87046-4.6989.36758-.8317.73841-1.61 1.08118-2.2349.35417-.64561.64516-1.06383.84161-1.23573l-.6585-.75257c-.3451.30195-.70917.86809-1.05986 1.50737-.3621.66013-.74592 1.46723-1.11909 2.31163-.7468 1.6898-1.46407 3.5587-1.89704 4.7653l.94124.3378Zm3.79325-8.16953c.28214-.24687.89364-.59933 1.71514-1.0031.8037-.39502 1.7573-.81507 2.681-1.2019.9226-.38642 1.8103-.73754 2.4801-.99455.3349-.12852.6144-.23311.8157-.30656.1009-.03681.1807-.06525.2373-.08479.0763-.02629.0755-.02381.0473-.01817l-.1962-.98058c-.0546.01093-.1321.03786-.1771.05337-.0645.02225-.1504.05293-.2541.09074-.2077.07579-.4924.1824-.8311.31236-.6775.25994-1.5747.61482-2.5082 1.0058-.9326.39058-1.9067.81932-2.7358 1.22683-.81129.39875-1.53777.80255-1.93254 1.14798l.6585.75257ZM16.55 4.99231c0-.05406.0105-.08873.0053-.06619-.0019.00839-.0064.02572-.0148.05432-.0166.05642-.0427.13756-.0786.24288-.0714.2095-.1761.4983-.3067.84359-.2607.68989-.6205 1.59457-1.0144 2.52168-.3944.9282-.8204 1.87231-1.2136 2.64381-.1967.386-.3822.7228-.5488.9901-.1724.2767-.3048.4463-.3906.5255l.6783.7348c.1891-.1746.3794-.44.561-.7314.1873-.3006.3872-.6649.5911-1.0649.408-.8005.8441-1.76819 1.2429-2.70682.3994-.93972.7641-1.85691 1.0296-2.55921.1326-.3508.2414-.65068.3177-.87433.0379-.11126.0692-.20782.0917-.28421.011-.0378.0214-.07566.0295-.11048.0048-.02066.0204-.08657.0204-.15914h-1ZM12.9878 12.748c-.4903.4526-1.6358 1.1449-3.15111 1.8735-1.49772.7202-3.30399 1.4509-5.07525 1.9927l.2925.9562c1.8249-.5582 3.67824-1.3082 5.21606-2.0477 1.5203-.7309 2.7864-1.4771 3.3961-2.0399l-.6783-.7348ZM10.262 9.6109c.0237.01585.0426.03367.0584.05468.0165.02203.0366.05725.0464.10584.0106.05238.0057.10399-.0093.14573-.0139.03843-.0297.05065-.0193.04025l-.70714-.70711c-.19042.19043-.2999.4444-.24444.71906.04801.23775.20175.39435.32064.47365l.55474-.8321Zm.0762.3465c-.0144.01437.018-.01469.1545-.102.1158-.0741.2734-.16969.4633-.28053.3789-.22128.8747-.49662 1.3976-.77111.5233-.27475 1.0687-.54599 1.5478-.76043.4931-.22069.8736-.36161 1.0853-.40232l-.1888-.98201c-.3383.06506-.8145.25201-1.305.47159-.5046.22582-1.0698.50723-1.6042.78777-.5348.2808-1.0438.56339-1.437.79295-.1962.11458-.3665.21764-.49788.3017-.11074.07084-.24493.15946-.32276.23728l.70714.70711Zm4.0677-2.92321c-.0422.17713-.1721.5337-.3704 1.00457-.1935.45959-.4394.99825-.6975 1.52485-.2584.52739-.526 1.03609-.7625 1.43789-.1185.2012-.2258.3696-.3175.4979-.0457.064-.0848.1141-.117.1514-.016.0185-.0289.0323-.0389.0422-.0102.0101-.0151.014-.0149.0138l.6179.7864c.1334-.1049.2588-.2618.3664-.4123.1151-.161.2389-.3568.3657-.572.2539-.4312.5337-.9643.7988-1.5052.2655-.54167.5194-1.09772.7211-1.57683.1971-.46783.358-.89395.4216-1.16106l-.9728-.23162Zm-2.2578 4.63171c-.0432.0247-.0394.0145-.0008.0091.0217-.0031.0533-.0044.0911.002.0386.0066.0747.0197.1063.0369.058.0317.0852.0695.076.0581-.0016-.0018-.0038-.0047-.0083-.0104-.0035-.0045-.0107-.0138-.0173-.0221-.0133-.0168-.0374-.0466-.0685-.0777l-.7071.7071c-.0018-.0018-.0278-.031.0263.0353.0317.0388.1039.1243.2201.1876.2872.1567.5756.0582.7783-.0577l-.4961-.8682Zm.1785-.0041-.0004-.0004-.0004-.0004-.0005-.0005-.0005-.0005-.0005-.0005-.0005-.0005-.0006-.0006-.0006-.0006-.0007-.0007a191071479.311967 191071479.311967 0 0 1-.002-.002c-.0003-.0003-.0005-.0005-.0008-.0007-.0002-.0003-.0005-.0006-.0007-.0008l-.0008-.0008c-.0003-.0003-.0006-.0005-.0008-.0008l-.0009-.0009c-.0003-.0003-.0006-.0005-.0008-.0008l-.0009-.0009-.001-.001-.0009-.0009-.001-.001-.001-.001-.001-.001-.0011-.0011-.0011-.0011-.0011-.0011-.0011-.0011-.0012-.0012-.0011-.0011c-.0004-.0004-.0008-.0008-.0013-.0012-.0004-.0005-.0008-.0009-.0012-.0013l-.0012-.0012-.0013-.0013-.0013-.0013-.0014-.0014-.0013-.0013-.0014-.0014-.0014-.0014-.0015-.0015-.0014-.0014-.0015-.0015-.0015-.0015-.0015-.0015-.0016-.0016-.0016-.0016-.0016-.0016-.0016-.0016-.0016-.0016-.0017-.0017-.0017-.0017-.0017-.0017-.0018-.0018-.0018-.0018-.0017-.0017-.0019-.0019-.0018-.0018-.0019-.0019-.0018-.0018-.002-.002-.0019-.0019-.0019-.0019-.002-.002-.002-.002-.002-.002-.0021-.0021-.002-.002-.0021-.0021-.0021-.0021-.0022-.0022-.0021-.0021-.0022-.0022-.0022-.0022-.0022-.0022-.0023-.0023-.0022-.0022-.0023-.0023-.0023-.0023-.0024-.0024-.0023-.0023-.0024-.0024-.0024-.0024-.0024-.0024-.0024-.0024c-.0008-.0008-.0017-.0016-.0025-.0025l-.0024-.0024-.0025-.0025-.0026-.0026c-.0008-.0008-.0017-.0016-.0025-.0025l-.0026-.0026-.0025-.0025-.0026-.0026-.0027-.0027-.0026-.0026c-.0009-.0009-.0018-.0018-.0027-.0026-.0008-.0009-.0017-.0018-.0026-.0027l-.0027-.0027-.0027-.0027-.0028-.0028-.0027-.0027-.0028-.0028-.0028-.0028c-.001-.0009-.0019-.0019-.0028-.0028l-.0029-.0029-.0028-.0028-.0029-.0029-.0029-.0029-.0029-.0029c-.001-.001-.002-.0019-.0029-.0029l-.003-.003-.0029-.0029-.003-.003-.003-.003c-.001-.001-.0021-.002-.0031-.0031l-.003-.003-.0031-.0031-.003-.003-.0031-.0031-.0032-.0032-.0031-.0031-.0031-.0031-.0032-.0032-.0032-.0032-.0032-.0032-.0032-.0032-.0033-.0033-.0032-.0032-.0033-.0033-.0033-.0033-.0033-.0033-.0033-.0033-.0033-.0033-.0034-.0034-.0034-.0034-.0034-.0034-.0034-.0034-.0034-.0034-.0034-.0034-.0035-.0035-.0035-.0035-.0035-.0035-.0035-.0035-.0035-.0035-.0035-.0035-.0036-.0036c-.0012-.0012-.0024-.0024-.0036-.0035-.0011-.0012-.0023-.0024-.0035-.0036l-.0036-.0036-.0037-.0037-.0036-.0036-.0036-.0036c-.0013-.0012-.0025-.0025-.0037-.0037l-.0037-.0037-.0037-.0037-.0037-.0037a7266771657.604333 7266771657.604333 0 0 1-.0187-.0187l-.0038-.0038-.0038-.0038-.0039-.0039-.0038-.0038-.0039-.0039-.0038-.0038-.0039-.0039-.0039-.0039-.0039-.0039-.0039-.0039-.004-.004-.0039-.0039-.004-.004-.004-.004c-.0013-.0013-.0026-.0026-.004-.0039-.0013-.0014-.0026-.0027-.004-.0041a8706992943.41587 8706992943.41587 0 0 1-.008-.008l-.004-.004-.0041-.0041-.0041-.0041c-.0013-.0013-.0027-.0027-.0041-.004-.0013-.0014-.0027-.0028-.004-.0041-.0014-.0014-.0028-.0028-.0042-.0041-.0013-.0014-.0027-.0028-.0041-.0042l-.0041-.0041-.0041-.0041-.0042-.0042-.0042-.0042c-.0014-.0014-.0028-.0028-.0042-.0041-.0013-.0014-.0027-.0028-.0041-.0042l-.0042-.0042c-.0015-.0014-.0029-.0029-.0043-.0043l-.0042-.0042-.0042-.0042-.0043-.0043-.0042-.0042-.0043-.0043-.0043-.0043-.0043-.0043-.0043-.0043-.0043-.0043-.0044-.0044c-.0014-.0014-.0029-.0028-.0043-.0043-.0015-.0014-.0029-.0029-.0044-.0044l-.0043-.0043-.0044-.0044-.0044-.0044-.0044-.0044-.0044-.0044-.0044-.0044-.0044-.0044-.0044-.0044-.0045-.0045-.0044-.0044-.0045-.0045-.0045-.0045-.0045-.0045-.0045-.0045-.0045-.0045-.0045-.0045-.0045-.0045-.0045-.0045-.0046-.0046-.0045-.0045-.0046-.0046-.0046-.0046-.0045-.0045-.0046-.0046-.0046-.0046-.0046-.0046-.0046-.0046-.0047-.0047-.0046-.0046-.0046-.0046-.0047-.0047-.0046-.0046-.0047-.0047-.0047-.0047-.0046-.0046-.0047-.0047-.0047-.0047-.0047-.0047-.0047-.0047c-.0016-.0016-.0032-.0032-.0048-.0047-.0015-.0016-.0031-.0032-.0047-.0048-.0016-.0015-.0031-.0031-.0047-.0047l-.0047-.0047-.0048-.0048-.0047-.0047-.0048-.0048-.0048-.0048c-.0016-.0016-.0032-.0031-.0047-.0047l-.0048-.0048-.0048-.0048-.0048-.0048-.0048-.0048-.0048-.0048-.0048-.0048-.0048-.0048c-.0017-.0016-.0033-.0033-.0049-.0049l-.0048-.0048-.0048-.0048-.0049-.0049-.0048-.0048-.0049-.0049-.0048-.0048-.0049-.0049-.0049-.0049-.0049-.0049-.0048-.0048-.0049-.0049-.0049-.0049c-.0017-.0016-.0033-.0033-.0049-.0049-.0017-.0016-.0033-.0033-.0049-.0049l-.0049-.0049-.0049-.0049-.005-.005-.0049-.0049-.0049-.0049-.0049-.0049-.005-.005-.0049-.0049c-.0017-.0017-.0033-.0033-.005-.0049-.0016-.0017-.0033-.0033-.0049-.005-.0016-.0016-.0033-.0033-.005-.0049-.0016-.0017-.0033-.0034-.0049-.005l-.005-.005-.0049-.0049-.005-.005-.005-.005-.0049-.0049-.005-.005-.005-.005-.005-.005-.005-.005-.005-.005-.005-.005-.005-.005-.005-.005-.005-.005-.005-.005-.005-.005-.005-.005-.005-.005-.005-.005-.005-.005c-.0017-.0017-.0034-.0034-.0051-.005-.0016-.0017-.0033-.0034-.005-.0051l-.005-.005-.005-.005c-.0017-.0017-.0034-.0034-.0051-.005-.0016-.0017-.0033-.0034-.005-.0051l-.005-.005-.005-.005-.0051-.0051-.005-.005-.0051-.0051-.005-.005-.005-.005-.0051-.0051-.005-.005-.0051-.0051-.005-.005c-.0017-.0017-.0034-.0034-.0051-.005-.0016-.0017-.0033-.0034-.005-.0051l-.005-.005-.0051-.0051-.005-.005-.0051-.0051c-.0017-.0017-.0034-.0033-.005-.005l-.0051-.0051-.005-.005-.0051-.0051-.005-.005-.0051-.0051-.005-.005-.0051-.0051-.005-.005-.0051-.0051-.005-.005-.0051-.0051-.005-.005-.005-.005-.0051-.0051-.005-.005-.0051-.0051-.005-.005-.0051-.0051-.005-.005c-.0017-.0017-.0034-.0033-.005-.005l-.0051-.0051-.005-.005-.005-.005-.0051-.0051-.005-.005-.005-.005-.005-.005-.0051-.0051-.005-.005-.005-.005-.005-.005-.005-.005-.005-.005-.0051-.0051-.005-.005-.005-.005-.005-.005-.005-.005-.005-.005-.0049-.0049-.005-.005-.005-.005-.005-.005-.005-.005-.005-.005-.0049-.0049-.005-.005-.005-.005-.0049-.0049-.005-.005-.0049-.0049-.005-.005-.0049-.0049-.005-.005-.0049-.0049-.0049-.0049-.005-.005-.0049-.0049-.0049-.0049-.0049-.0049c-.0017-.0016-.0033-.0033-.0049-.0049l-.0049-.0049-.0049-.0049-.0049-.0049-.0049-.0049-.0049-.0049-.0049-.0049-.0048-.0048-.0049-.0049-.0049-.0049-.0048-.0048-.0049-.0049-.0048-.0048-.0049-.0049-.0048-.0048-.0048-.0048-.0048-.0048c-.0016-.0016-.0032-.0032-.0049-.0048-.0016-.0017-.0032-.0033-.0048-.0049l-.0048-.0048-.0048-.0048-.0047-.0047-.0048-.0048-.0048-.0048-.0048-.0048-.0047-.0047-.0048-.0048c-.0016-.0016-.0032-.0031-.0047-.0047l-.0048-.0048c-.0016-.0015-.0031-.0031-.0047-.0047l-.0047-.0047c-.0016-.0016-.0032-.0032-.0048-.0047-.0015-.0016-.0031-.0032-.0047-.0048l-.0047-.0047-.0047-.0047-.0046-.0046-.0047-.0047-.0047-.0047-.0047-.0047-.0046-.0046-.0047-.0047-.0046-.0046-.0046-.0046c-.0016-.0016-.0031-.00312-.0047-.00466-.0015-.00154-.003-.00308-.0046-.00461-.0015-.00154-.0031-.00308-.0046-.00461-.0015-.00153-.0031-.00307-.0046-.0046-.0015-.00153-.003-.00306-.0046-.00459-.0015-.00153-.003-.00305-.0046-.00458-.0015-.00152-.003-.00305-.0045-.00457-.0015-.00152-.0031-.00304-.0046-.00456-.0015-.00152-.003-.00304-.0045-.00455-.0016-.00152-.0031-.00303-.0046-.00455l-.0045-.00453-.0045-.00453c-.0015-.0015-.0031-.00301-.0046-.00451-.0015-.00151-.003-.00301-.0045-.00451l-.0045-.0045c-.0015-.00149-.003-.00299-.0044-.00448-.0015-.0015-.003-.00299-.0045-.00448l-.0045-.00447c-.0015-.00149-.003-.00297-.0044-.00446l-.0045-.00444c-.0015-.00148-.003-.00296-.0044-.00444-.0015-.00148-.003-.00295-.0045-.00443-.0014-.00147-.0029-.00295-.0044-.00442-.0015-.00147-.0029-.00294-.0044-.0044-.0015-.00147-.0029-.00294-.0044-.0044-.0014-.00146-.0029-.00293-.0044-.00439-.0014-.00146-.0029-.00292-.0043-.00437-.0015-.00146-.003-.00291-.0044-.00437-.0015-.00145-.0029-.0029-.0044-.00435-.0014-.00145-.0029-.0029-.0043-.00434-.0015-.00145-.0029-.00289-.0043-.00434-.0015-.00144-.0029-.00288-.0044-.00432-.0014-.00144-.0028-.00287-.0043-.00431-.0014-.00143-.0028-.00287-.0043-.0043-.0014-.00143-.0028-.00286-.0043-.00429-.0014-.00142-.0028-.00285-.0042-.00427-.0015-.00143-.0029-.00285-.0043-.00427-.0014-.00142-.0028-.00284-.0043-.00425a1.687044 1.687044 0 0 0-.0042-.00424.840515.840515 0 0 0-.0042-.00423c-.0014-.00141-.0028-.00282-.0042-.00422-.0015-.00141-.0029-.00281-.0043-.00421-.0014-.0014-.0028-.0028-.0041-.0042-.0014-.00139-.0028-.00279-.0042-.00418l-.0042-.00417c-.0014-.00139-.0028-.00277-.0042-.00416-.0013-.00138-.0027-.00277-.0041-.00415-.0014-.00138-.0028-.00275-.0041-.00413-.0014-.00138-.0028-.00275-.0042-.00412-.0013-.00137-.0027-.00274-.0041-.00411-.0013-.00137-.0027-.00274-.0041-.0041-.0013-.00136-.0027-.00272-.0041-.00408-.0013-.00136-.0027-.00272-.004-.00407-.0014-.00136-.0027-.00271-.0041-.00406-.0013-.00135-.0027-.0027-.004-.00405-.0014-.00135-.0027-.00269-.0041-.00403-.0013-.00134-.0026-.00268-.004-.00402-.0013-.00134-.0027-.00267-.004-.00401-.0013-.00133-.0027-.00266-.004-.00399-.0013-.00133-.0026-.00266-.004-.00398-.0013-.00133-.0026-.00265-.0039-.00397-.0014-.00132-.0027-.00264-.004-.00395a1.456244 1.456244 0 0 0-.0039-.00394l-.0039-.00393c-.0014-.0013-.0027-.00261-.004-.00391l-.0039-.0039c-.0013-.00129-.0026-.00259-.0038-.00388l-.0039-.00387c-.0013-.00129-.0026-.00258-.0039-.00386-.0013-.00128-.0025-.00256-.0038-.00384-.0013-.00128-.0026-.00255-.0038-.00383l-.0039-.00381c-.0012-.00127-.0025-.00254-.0038-.0038-.0012-.00127-.0025-.00253-.0037-.00379-.0013-.00126-.0026-.00251-.0038-.00377-.0013-.00125-.0025-.0025-.0038-.00375-.0012-.00125-.0025-.0025-.0037-.00374-.0012-.00125-.0025-.00249-.0037-.00373l-.70714.70713c.00124.0012.00248.0025.00373.0037.00124.0012.00249.0025.00374.0037.00125.0013.0025.0025.00375.0038.00126.0013.00251.0025.00377.0038.00126.0012.00252.0025.00379.0038.00126.0012.00253.0025.0038.0038.00127.0012.00254.0025.00381.0038.00128.0012.00255.0025.00383.0038.00128.0013.00256.0026.00384.0038.00128.0013.00257.0026.00386.0039l.00387.0039c.00129.0013.00259.0026.00388.0038l.0039.0039c.0013.0013.00261.0027.00391.004l.00393.0039c.00131.0013.00262.0026.00394.0039.00131.0013.00263.0027.00395.004.00132.0013.00264.0026.00397.0039.00132.0014.00265.0027.00398.004.00133.0014.00266.0027.00399.004.00134.0014.00267.0027.00401.004.00134.0014.00268.0027.00402.004.00134.0014.00268.0027.00403.0041.00135.0013.0027.0027.00405.004.00135.0014.0027.0027.00406.0041.00135.0013.00271.0027.00407.0041.00136.0013.00272.0027.00408.004.00136.0014.00273.0028.0041.0041.00137.0014.00274.0028.00411.0041.00137.0014.00274.0028.00412.0042.00138.0013.00275.0027.00413.0041.00138.0014.00277.0028.00415.0041.00139.0014.00277.0028.00416.0042l.00417.0042c.00139.0014.00279.0028.00418.0042l.0042.0042c.0014.0014.0028.0028.00421.0042.0014.0014.00281.0028.00422.0042.0014.0014.00281.0028.00423.0042.00141.0014.00282.0028.00424.0043.00141.0014.00283.0028.00425.0042.00142.0014.00284.0029.00427.0043.00142.0014.00285.0028.00427.0043l.00429.0042c.00143.0015.00287.0029.0043.0043.00144.0015.00287.0029.00431.0043.00144.0015.00288.0029.00432.0044.00145.0014.00289.0029.00434.0043.00144.0014.00289.0029.00434.0043.00145.0015.0029.0029.00435.0044.00146.0015.00291.0029.00437.0044.00145.0014.00291.0029.00437.0043.00146.0015.00293.003.00439.0044.00146.0015.00293.003.0044.0044.00146.0015.00293.003.0044.0044.00147.0015.00295.003.00442.0044.00148.0015.00295.003.00443.0045.00148.0015.00296.0029.00444.0044l.00444.0045c.00149.0014.00297.0029.00446.0044l.00447.0045c.00149.0015.00298.003.00448.0045.00149.0015.00299.003.00448.0045.0015.0014.003.0029.0045.0044.0015.0015.003.0031.00451.0046.0015.0015.00301.003.00451.0045l.00453.0045.00453.0045c.00152.0015.00303.0031.00455.0046.00151.0015.00303.003.00455.0045.00152.0015.00304.0031.00456.0046.00152.0015.00305.003.00457.0046.00153.0015.00306.003.00458.0045.00153.0016.00306.0031.00459.0046.00153.0016.00307.0031.0046.0046.00153.0016.00307.0031.00461.0046.00153.0016.00307.0031.00461.0046.00154.0016.00308.0031.00462.0047.00155.0015.00309.0031.00463.0046.00155.0015.0031.0031.00464.0046.00155.0016.0031.0031.00465.0047.00155.0015.00311.0031.00466.0046.00155.0016.00311.0032.00466.0047.00156.0016.00312.0031.00467.0047.00156.0015.00312.0031.00468.0047.00157.0015.00313.0031.00469.0046.00157.0016.00317.0032.00467.0047l.0047.0047c.0016.0016.0032.0032.0047.0048.0016.0015.0032.0031.0048.0047.0015.0016.0031.0031.0047.0047.0016.0016.0031.0032.0047.0047l.0048.0048c.0015.0016.0031.0031.0047.0047l.0048.0048a.10416.10416 0 0 0 .0047.0047l.0048.0048.0048.0048c.0016.0016.0032.0032.0047.0048l.0048.0048c.0016.0016.0032.0031.0048.0047l.0048.0048c.0016.0017.0032.0033.0048.0049.0016.0016.0032.0032.0049.0048l.0048.0048.0048.0048c.0016.0016.0032.0032.0048.0049.0016.0016.0033.0032.0049.0048l.0048.0048c.0016.0017.0033.0033.0049.0049l.0048.0048c.0016.0017.0033.0033.0049.0049l.0049.0049.0048.0048.0049.0049.0049.0049c.0016.0016.0032.0033.0049.0049.0016.0016.0032.0033.0049.0049.0016.0016.0032.0033.0049.0049.0016.0016.0032.0033.0049.0049.0016.0016.0032.0033.0049.0049l.0049.0049.0049.0049.0049.0049.005.005c.0016.0016.0032.0033.0049.0049.0016.0017.0033.0033.0049.0049l.005.005.0049.0049.005.005.0049.0049.005.005.0049.0049c.0017.0017.0033.0034.005.005l.005.005c.0016.0016.0033.0033.0049.005.0017.0016.0034.0033.005.0049l.005.005c.0016.0017.0033.0033.005.005l.005.005c.0016.0016.0033.0033.0049.005.0017.0016.0034.0033.005.005.0017.0016.0034.0033.005.0049l.005.005.005.005.005.005c.0017.0017.0034.0034.005.0051.0017.0016.0034.0033.005.005.0017.0016.0034.0033.0051.005l.005.005c.0016.0017.0033.0033.005.005.0017.0017.0033.0034.005.005l.005.005.0051.0051.005.005.005.005.005.005.0051.0051c.0016.0017.0033.0033.005.005.0017.0017.0033.0034.005.005l.0051.0051c.0016.0017.0033.0033.005.005.0017.0017.0034.0034.005.0051.0017.0016.0034.0033.0051.005.0017.0017.0033.0034.005.005l.0051.0051c.0016.0017.0033.0033.005.005.0017.0017.0034.0034.005.0051.0017.0016.0034.0033.0051.005.0017.0017.0034.0034.005.0051.0017.0016.0034.0033.0051.005.0017.0017.0033.0034.005.005l.0051.0051c.0017.0017.0033.0034.005.005l.0051.0051c.0017.0017.0033.0034.005.005l.0051.0051c.0016.0017.0033.0033.005.005l.0051.0051c.0016.0017.0033.0033.005.005l.0051.0051c.0016.0017.0033.0033.005.005l.0051.0051c.0016.0017.0033.0033.005.005.0017.0017.0034.0034.005.0051.0017.0016.0034.0033.0051.005.0017.0017.0034.0034.005.0051.0017.0016.0034.0033.0051.005l.005.005.0051.0051c.0017.0017.0033.0034.005.005l.0051.0051c.0016.0017.0033.0033.005.005.0017.0017.0034.0034.005.0051.0017.0016.0034.0033.0051.005.0017.0017.0033.0034.005.005.0017.0017.0034.0034.005.0051.0017.0016.0034.0033.0051.005.0017.0017.0033.0034.005.005.0017.0017.0034.0034.005.0051.0017.0016.0034.0033.0051.005.0016.0017.0033.0033.005.005.0017.0017.0033.0034.005.005.0017.0017.0034.0034.005.0051.0017.0016.0034.0033.0051.005.0016.0017.0033.0033.005.005l.005.005c.0017.0017.0033.0034.005.005l.005.005.005.005.005.005c.0017.0017.0034.0034.005.0051.0017.0016.0034.0033.005.005.0017.0016.0034.0033.005.0049l.005.005.005.005c.0017.0017.0033.0034.005.005l.005.005.005.005c.0016.0016.0033.0033.0049.005.0017.0016.0034.0033.005.0049.0017.0017.0033.0034.005.005l.005.005.0049.0049.005.005c.0016.0017.0033.0033.0049.005.0017.0016.0033.0033.005.0049.0016.0017.0033.0033.0049.005.0017.0016.0033.0033.005.0049l.0049.0049.005.005c.0016.0016.0032.0033.0049.0049l.0049.0049c.0017.0017.0033.0033.0049.005.0017.0016.0033.0032.005.0049l.0049.0049c.0016.0016.0032.0033.0049.0049.0016.0016.0032.0033.0049.0049.0016.0016.0032.0033.0049.0049.0016.0016.0032.0033.0049.0049l.0049.0049c.0016.0016.0032.0032.0048.0049.0017.0016.0033.0032.0049.0048.0016.0017.0033.0033.0049.0049.0016.0016.0032.0032.0048.0049.0017.0016.0033.0032.0049.0048.0016.0016.0032.0033.0049.0049l.0048.0048c.0016.0016.0032.0033.0049.0049l.0048.0048.0048.0048a.11321.11321 0 0 0 .0049.0049l.0048.0048.0048.0048.0048.0048.0048.0048.0048.0048.0048.0048c.0016.0016.0032.0032.0047.0048.0016.0016.0032.0031.0048.0047l.0048.0048c.0016.0016.0032.0032.0047.0048.0016.0016.0032.0031.0048.0047.0016.0016.0032.0032.0047.0048.0016.0015.0032.0031.0048.0047.0016.0016.0031.0032.0047.0047.0016.0016.0032.0032.0047.0048.0016.0015.0032.0031.0048.0047l.0047.0047c.0015.0016.0031.0031.0047.0047.0015.0016.0031.0031.0047.0047l.0047.0047.0046.0046c.0016.0016.0031.0032.0047.0047l.0047.0047.0046.0046.0047.0047.0046.0046c.0015.0016.0031.0031.0046.0046l.0047.0047.0046.0046c.0015.0015.003.0031.0046.0046l.0046.0046c.0015.0015.003.003.0045.0046.0016.0015.0031.003.0046.0045l.0046.0046c.0015.0015.003.0031.0046.0046l.0045.0045c.0015.0015.003.0031.0045.0046.0016.0015.0031.003.0046.0045l.0045.0045.0045.0045.0045.0045.0045.0045.0045.0045.0045.0045c.0015.0015.003.003.0044.0045.0015.0014.003.0029.0045.0044.0015.0015.003.003.0044.0045.0015.0014.003.0029.0045.0044l.0044.0044.0044.0044.0044.0044.0044.0044c.0015.0015.0029.003.0044.0044l.0044.0044c.0014.0014.0029.0029.0043.0044.0015.0014.0029.0029.0044.0043.0014.0015.0029.0029.0043.0043l.0044.0044c.0014.0014.0028.0029.0043.0043l.0043.0043.0043.0043c.0014.0014.0028.0029.0043.0043.0014.0014.0028.0028.0042.0043.0015.0014.0029.0028.0043.0042.0014.0014.0028.0029.0043.0043l.0042.0042.0042.0042c.0014.0015.0028.0029.0042.0043l.0042.0042.0042.0042c.0014.0014.0028.0027.0042.0041l.0042.0042c.0014.0014.0028.0028.0041.0042.0014.0013.0028.0027.0042.0041.0014.0014.0027.0028.0041.0041.0014.0014.0028.0028.0041.0042a.07927.07927 0 0 1 .0041.0041.07927.07927 0 0 1 .0041.0041c.0014.0013.0028.0027.0041.004.0014.0014.0027.0028.0041.0041.0013.0014.0027.0027.004.0041.0014.0013.0027.0027.0041.004.0013.0014.0027.0027.004.004.0014.0014.0027.0027.004.0041.0014.0013.0027.0026.004.004.0014.0013.0027.0026.004.0039l.004.004.004.004.0039.0039c.0013.0014.0026.0027.004.004l.0039.0039.0039.0039.0039.0039.0039.0039c.0013.0013.0025.0026.0038.0039.0013.0012.0026.0025.0039.0038l.0038.0038.0039.0039.0038.0038.0038.0038c.0012.0012.0025.0025.0037.0038.0013.0012.0026.0025.0038.0037l.0038.0038.0037.0037c.0012.0013.0025.0025.0037.0037l.0037.0037.0037.0037c.0012.0013.0025.0025.0037.0037.0012.0012.0024.0025.0037.0037l.0036.0036c.0012.0012.0024.0024.0036.0037.0012.0012.0025.0024.0037.0036l.0036.0036c.0012.0012.0023.0024.0035.0036.0012.0011.0024.0023.0036.0035l.0036.0036c.0011.0012.0023.0023.0035.0035l.0035.0035.0035.0035.0035.0035c.0012.0012.0023.0024.0035.0035.0011.0012.0023.0023.0035.0035.0011.0011.0022.0023.0034.0034.0011.0012.0023.0023.0034.0034l.0034.0034.0034.0034c.0011.0012.0023.0023.0034.0034.0011.0011.0022.0022.0033.0034.0012.0011.0023.0022.0034.0033l.0033.0033.0033.0033.0033.0033.0033.0033c.0011.0011.0022.0022.0032.0033.0011.001.0022.0021.0033.0032l.0032.0032c.0011.0011.0021.0022.0032.0032l.0032.0032c.001.0011.0021.0021.0032.0032l.0031.0031c.0011.0011.0021.0021.0031.0032.0011.001.0021.002.0032.0031.001.001.002.002.003.0031.0011.001.0021.002.0031.003l.0031.0031.003.003c.001.0011.002.0021.0031.0031l.003.003c.001.001.002.002.0029.003.001.001.002.0019.003.0029l.003.003c.0009.001.0019.0019.0029.0029.001.001.0019.002.0029.0029.001.001.0019.002.0029.0029l.0029.0029a4161131900.477538 4161131900.477538 0 0 1 .0057.0057c.0009.0009.0018.0019.0028.0028.0009.0009.0018.0019.0028.0028l.0028.0028.0027.0027c.0009.0009.0018.0019.0027.0028.001.0009.0019.0018.0028.0027l.0027.0027c.0009.0009.0018.0018.0026.0027.0009.0008.0018.0017.0027.0026.0009.0009.0018.0018.0026.0027.0009.0008.0018.0017.0027.0026l.0026.0026c.0008.0008.0017.0017.0025.0026.0009.0008.0017.0017.0026.0025.0008.0009.0017.0017.0025.0025.0009.0009.0017.0017.0025.0026a.02949.02949 0 0 1 .0025.0025c.0009.0008.0017.0016.0025.0024.0008.0009.0017.0017.0025.0025l.0024.0024.0024.0024.0024.0024.0024.0024a1402289286.657813 1402289286.657813 0 0 1 .0047.0047c.0007.0008.0015.0015.0023.0023.0007.0008.0015.0015.0023.0023l.0022.0022.0023.0023c.0007.0007.0014.0015.0022.0022.0007.0007.0014.0015.0022.0022.0007.0007.0014.0015.0022.0022l.0021.0021c.0007.0007.0014.0015.0021.0022.0008.0007.0015.0014.0022.0021.0007.0007.0014.0014.002.0021.0007.0007.0014.0013.0021.002l.0021.0021.002.002c.0006.0007.0013.0013.002.002.0006.0007.0013.0013.002.002l.0019.0019c.0007.0007.0013.0013.0019.002.0007.0006.0013.0012.0019.0019.0007.0006.0013.0012.0019.0018l.0019.0019.0018.0018c.0006.0007.0012.0013.0018.0019l.0018.0018c.0006.0005.0012.0011.0018.0017l.0018.0018.0017.0017c.0005.0006.0011.0011.0017.0017.0005.0006.0011.0011.0016.0017.0006.0005.0012.0011.0017.0016.0005.0006.0011.0011.0016.0016l.0016.0016.0016.0016c.0005.0005.001.0011.0016.0016l.0015.0015.0015.0015.0015.0015c.0005.0005.001.001.0014.0015.0005.0004.001.0009.0015.0014.0004.0005.0009.0009.0014.0014.0004.0005.0009.0009.0014.0014l.0013.0013.0014.0014c.0004.0004.0008.0009.0013.0013l.0013.0013.0012.0012c.0004.0004.0008.0009.0012.0013.0004.0004.0009.0008.0013.0012.0003.0004.0007.0008.0011.0012.0004.0003.0008.0007.0012.0011l.0011.0011.0011.0011.0011.0011.0011.0011.001.001.001.001.001.001.0009.0009c.0003.0004.0006.0007.0009.001.0004.0003.0007.0006.0009.0009.0003.0003.0006.0005.0009.0008l.0009.0009c.0002.0003.0005.0005.0008.0008l.0008.0008c.0002.0003.0005.0005.0007.0008.0003.0002.0005.0005.0008.0007l.0007.0007.0007.0007a.00435.00435 0 0 1 .0006.0007c.0002.0002.0005.0004.0007.0006l.0006.0006c.0002.0002.0004.0004.0005.0006.0002.0001.0004.0003.0006.0005.0002.0002.0003.0004.0005.0005.0002.0002.0003.0004.0005.0005l.0005.0005.0004.0004.0004.0004.7071-.7071Zm-2.69554-1.2813 1.98844 1.9884.7071-.7071-1.9884-1.98843-.70714.70713Z" fill="#000"/><path fill-rule="evenodd" clip-rule="evenodd" d="M11 22c6.0751 0 11-4.9249 11-11 0-6.07513-4.9249-11-11-11C4.92487 0 0 4.92487 0 11c0 6.0751 4.92487 11 11 11Zm0-1.6077c5.1872 0 9.3923-4.2051 9.3923-9.3924 0-5.18718-4.2051-9.39226-9.3923-9.39226-5.18723 0-9.39231 4.20508-9.39231 9.39226 0 5.1873 4.20508 9.3924 9.39231 9.3924Z" fill="#000"/></svg>