<svg width="24" height="24" viewBox="0 0 24 24" fill="none" xmlns="http://www.w3.org/2000/svg">
<path fill-rule="evenodd" clip-rule="evenodd" d="M12 23C18.0751 23 23 18.0751 23 12C23 5.92487 18.0751 1 12 1C5.92487 1 1 5.92487 1 12C1 18.0751 5.92487 23 12 23ZM5.90769 18.0923C6.76795 15.6949 8.75923 10.6631 9.84231 9.71539C11.1962 8.53077 17.8385 6.03462 18.05 5.99231C18.05 6.28846 15.4269 13.1 14.3269 14.1154C13.2269 15.1308 9.50385 16.9923 5.90769 18.0923ZM14.3269 9.71539L12 10.5L13.5 12L14.3269 9.71539Z" fill="black"/>
<path d="M9.84231 9.71539L10.1716 10.0917L10.1716 10.0917L9.84231 9.71539ZM5.90769 18.0923L5.43707 17.9234L5.10024 18.8622L6.05394 18.5704L5.90769 18.0923ZM18.05 5.99231H18.55V5.38241L17.9519 5.50202L18.05 5.99231ZM12 10.5L11.8402 10.0262L11.0766 10.2837L11.6464 10.8536L12 10.5ZM14.3269 9.71539L14.7971 9.88556L15.1501 8.91015L14.1672 9.2416L14.3269 9.71539ZM13.5 12L13.1464 12.3536L13.7025 12.9096L13.9702 12.1702L13.5 12ZM22.5 12C22.5 17.799 17.799 22.5 12 22.5V23.5C18.3513 23.5 23.5 18.3513 23.5 12H22.5ZM12 1.5C17.799 1.5 22.5 6.20101 22.5 12H23.5C23.5 5.64873 18.3513 0.5 12 0.5V1.5ZM1.5 12C1.5 6.20101 6.20101 1.5 12 1.5V0.5C5.64873 0.5 0.5 5.64873 0.5 12H1.5ZM12 22.5C6.20101 22.5 1.5 17.799 1.5 12H0.5C0.5 18.3513 5.64873 23.5 12 23.5V22.5ZM9.51306 9.3391C9.16797 9.64105 8.80389 10.2072 8.4532 10.8465C8.0911 11.5066 7.70728 12.3137 7.33411 13.1581C6.58731 14.8479 5.87004 16.7168 5.43707 17.9234L6.37831 18.2612C6.8056 17.0704 7.5141 15.2247 8.24877 13.5623C8.61635 12.7306 8.98718 11.9523 9.32995 11.3274C9.68412 10.6818 9.97511 10.2636 10.1716 10.0917L9.51306 9.3391ZM17.9519 5.50202C17.8973 5.51295 17.8198 5.53988 17.7748 5.55539C17.7103 5.57764 17.6244 5.60832 17.5207 5.64613C17.313 5.72192 17.0283 5.82853 16.6896 5.95849C16.0121 6.21843 15.1149 6.57331 14.1814 6.96429C13.2488 7.35487 12.2747 7.78361 11.4456 8.19112C10.6343 8.58987 9.90783 8.99367 9.51306 9.3391L10.1716 10.0917C10.4537 9.8448 11.0652 9.49234 11.8867 9.08857C12.6904 8.69355 13.644 8.2735 14.5677 7.88667C15.4903 7.50025 16.378 7.14913 17.0478 6.89212C17.3827 6.7636 17.6622 6.65901 17.8635 6.58556C17.9644 6.54875 18.0442 6.52031 18.1008 6.50077C18.1771 6.47448 18.1763 6.47696 18.1481 6.4826L17.9519 5.50202ZM14.6661 14.4828C14.8552 14.3082 15.0455 14.0428 15.2271 13.7514C15.4144 13.4508 15.6143 13.0865 15.8182 12.6865C16.2262 11.886 16.6623 10.9183 17.0611 9.97968C17.4605 9.03996 17.8252 8.12277 18.0907 7.42047C18.2233 7.06967 18.3321 6.76979 18.4084 6.54614C18.4463 6.43488 18.4776 6.33832 18.5001 6.26193C18.5111 6.22412 18.5215 6.18627 18.5296 6.15145C18.5344 6.13079 18.55 6.06488 18.55 5.99231H17.55C17.55 5.93825 17.5605 5.90358 17.5553 5.92612C17.5534 5.93451 17.5489 5.95184 17.5405 5.98044C17.5239 6.03686 17.4978 6.118 17.4619 6.22332C17.3905 6.43282 17.2858 6.72162 17.1552 7.06691C16.8945 7.7568 16.5347 8.66148 16.1408 9.58859C15.7464 10.5168 15.3204 11.4609 14.9272 12.2324C14.7305 12.6184 14.545 12.9552 14.3784 13.2225C14.206 13.4992 14.0736 13.6688 13.9878 13.748L14.6661 14.4828ZM6.05394 18.5704C7.87884 18.0122 9.73218 17.2622 11.27 16.5227C12.7903 15.7918 14.0564 15.0456 14.6661 14.4828L13.9878 13.748C13.4975 14.2006 12.352 14.8929 10.8367 15.6215C9.33897 16.3417 7.5327 17.0724 5.76144 17.6142L6.05394 18.5704ZM12.1598 10.9738L14.4867 10.1892L14.1672 9.2416L11.8402 10.0262L12.1598 10.9738ZM13.8536 11.6464L12.3536 10.1464L11.6464 10.8536L13.1464 12.3536L13.8536 11.6464ZM13.8568 9.54521L13.0298 11.8298L13.9702 12.1702L14.7971 9.88556L13.8568 9.54521Z" fill="black"/>
</svg>
