<svg width="25" height="22" viewBox="0 0 25 22" fill="none" xmlns="http://www.w3.org/2000/svg">
<path d="M12.4993 21C12.0684 21 11.6572 20.8634 11.3096 20.6049C8.94995 18.8537 3.31022 14.4976 1.89539 11.8585C0.0448575 8.40976 1.15616 3.98049 4.36767 1.98537C5.40554 1.34146 6.58048 1 7.77501 1C9.5619 1 11.2411 1.73171 12.4993 3.03415C13.7574 1.73171 15.4366 1 17.2235 1C18.418 1 19.593 1.34146 20.6308 1.98537C23.8424 3.98049 24.9537 8.40976 23.108 11.8585C21.6932 14.4976 16.0535 18.8537 13.6938 20.6049C13.3413 20.8634 12.9301 21 12.4993 21Z" fill="black" stroke="black" stroke-width="0.6"/>
</svg>
