<svg width="25" height="22" fill="none" xmlns="http://www.w3.org/2000/svg"><path d="M12.4993 21c-.4309 0-.8421-.1366-1.1897-.3951-2.35965-1.7512-7.99938-6.1073-9.41421-8.7464-1.850533-3.44874-.73923-7.87801 2.47228-9.87313C5.40554 1.34146 6.58048 1 7.77501 1c1.78689 0 3.46609.73171 4.72429 2.03415C13.7574 1.73171 15.4366 1 17.2235 1c1.1945 0 2.3695.34146 3.4073.98537 3.2116 1.99512 4.3229 6.42439 2.4772 9.87313-1.4148 2.6391-7.0545 6.9952-9.4142 8.7464-.3525.2585-.7637.3951-1.1945.3951ZM7.77501 2.46341c-.92038 0-1.82606.26342-2.62894.76098-2.57019 1.6-3.4514 5.16098-1.95824 7.94151 1.31202 2.4487 7.21607 6.9463 8.99317 8.2634.1861.1366.4455.1366.6316 0 1.7771-1.322 7.6812-5.8195 8.9932-8.2634 1.4931-2.78053.6119-6.34639-1.9583-7.94151-.7979-.49756-1.7036-.76098-2.624-.76098-1.6106 0-3.1185.78049-4.1368 2.13659l-.5874.79024L11.9118 4.6c-1.0183-1.3561-2.52125-2.13659-4.13679-2.13659Z" fill="#000" stroke="#000" stroke-width=".6"/></svg>