<svg width="24" height="23" fill="none" xmlns="http://www.w3.org/2000/svg"><path d="m11.2705.33556.6975.6815c.008-.00818.0148-.01208.0199-.0142C11.9937 1.00045 11.9982 1 12 1c.0018 0 .0063.00045.0121.00286.0051.00211.0119.00602.0199.0142L22.4775 11.7076c.3334.3413.5225.8041.5225 1.2941v8.3068c0 .402-.3158.6915-.6527.6915h-5.9891c-.326 0-.6309-.2784-.6309-.6692v-5.0242c0-2.0711-1.6478-3.7913-3.7273-3.7913-2.07948 0-3.72727 1.7202-3.72727 3.7913v5.0242c0 .3908-.30493.6692-.63091.6692H1.65273C1.31584 22 1 21.7105 1 21.3085v-8.3068c0-.49.18905-.9528.52253-1.2941l-.709313-.6931.709313.6931L11.968 1.01706l-.6975-.6815Z" stroke="#000" stroke-width="2"/></svg>