<svg width="24" height="23" viewBox="0 0 24 23" fill="none" xmlns="http://www.w3.org/2000/svg">
<path d="M11.968 1.01706C11.976 1.00888 11.9828 1.00498 11.9879 1.00286C11.9937 1.00045 11.9982 1 12 1C12.0018 1 12.0063 1.00045 12.0121 1.00286C12.0172 1.00498 12.024 1.00888 12.032 1.01706L22.4775 11.7076C22.8109 12.0489 23 12.5117 23 13.0017V21.3085C23 21.7105 22.6842 22 22.3473 22H16.3582C16.0322 22 15.7273 21.7216 15.7273 21.3308V16.3066C15.7273 14.2355 14.0795 12.5153 12 12.5153C9.92052 12.5153 8.27273 14.2355 8.27273 16.3066V21.3308C8.27273 21.7216 7.9678 22 7.64182 22H1.65273C1.31584 22 1 21.7105 1 21.3085V13.0017C1 12.5117 1.18905 12.0489 1.52253 11.7076L11.968 1.01706Z" fill="black" stroke="black" stroke-width="2"/>
</svg>
