<?xml version="1.0" encoding="utf-8"?>
<!-- Generator: Adobe Illustrator 19.1.0, SVG Export Plug-In . SVG Version: 6.00 Build 0)  -->
<svg version="1.1" xmlns="http://www.w3.org/2000/svg" xmlns:xlink="http://www.w3.org/1999/xlink" x="0px" y="0px"
	 viewBox="0 0 91.3 67.8" style="enable-background:new 0 0 91.3 67.8;" xml:space="preserve">
<style type="text/css">
	.st0{fill:none;stroke:#010101;stroke-width:2;}
	.st1{fill:none;stroke:#010101;stroke-width:2;stroke-linecap:round;}
</style>
<g id="Layer_1">
</g>
<g id="Layer_2">
	<g>
		<path class="st0" d="M48.8,12.1l29.5,1.4c6.1,0.3,10.8,5.4,10.5,11.5l-1.4,30.4c-0.3,6.1-5.4,10.8-11.5,10.5l-29.5-1.4
			C40.2,64.2,35.5,59,35.8,53l1.4-30.4C37.6,16.5,42.7,11.8,48.8,12.1z"/>
		<path class="st0" d="M73.4,40.7L54,50.8c-1.4,0.7-3-0.3-2.9-1.9l0.9-21.8c0.1-1.5,1.8-2.4,3.1-1.6l18.6,11.7
			C74.9,38,74.8,40,73.4,40.7z"/>
		<g>
			<path class="st0" d="M36.5,54.8l-21.1,0.8C9.4,55.9,4.2,51.1,4,45.1L2.8,14.6C2.6,8.6,7.3,3.5,13.4,3.2l29.5-1.1
				C49,1.9,54.1,6.6,54.4,12.7"/>
			<circle class="st0" cx="13.4" cy="15.6" r="4"/>
			<path class="st1" d="M4.7,45.9l10-10"/>
			<path class="st1" d="M14.9,35.9l9.9,9.9"/>
			<path class="st1" d="M24.9,45.8l11.7-11.7"/>
		</g>
	</g>
</g>
</svg>
