<svg width="25" height="22" viewBox="0 0 25 22" fill="none" xmlns="http://www.w3.org/2000/svg">
<path fill-rule="evenodd" clip-rule="evenodd" d="M23.0073 1C23.3634 1 23.6941 1.18295 23.8671 1.48786C24.0451 1.79278 24.0451 2.16884 23.862 2.47884L13.2499 20.4993C13.0362 20.8601 12.6292 21.0532 12.2171 20.9872C11.8 20.9211 11.4846 20.6162 11.4083 20.2046L9.59136 10.5637L17.0649 6.30605C17.2662 5.42133 17.0802 5.151 16.2967 5L8.86233 9.23795L1.34047 2.75834C1.25399 2.68211 1.18277 2.59572 1.12681 2.50425C0.984362 2.25523 0.958925 1.95032 1.06576 1.66573C1.21329 1.27442 1.57958 1.01525 2.00182 1.01525L23.0073 1Z" fill="black"/>
<path d="M23.8671 1.48786L23.7366 1.56188L23.7376 1.5635L23.8671 1.48786ZM23.0073 1L23.0073 0.85L23.0072 0.85L23.0073 1ZM23.862 2.47884L23.7329 2.40254L23.7327 2.40272L23.862 2.47884ZM13.2499 20.4993L13.3789 20.5757L13.3791 20.5754L13.2499 20.4993ZM12.2171 20.9872L12.2409 20.8391L12.2406 20.839L12.2171 20.9872ZM11.4083 20.2046L11.5557 20.1772L11.5557 20.1768L11.4083 20.2046ZM9.59136 10.5637L9.51711 10.4334L9.42414 10.4863L9.44396 10.5915L9.59136 10.5637ZM17.0649 6.30605L17.1392 6.43639L17.1965 6.40371L17.2112 6.33933L17.0649 6.30605ZM16.2967 5L16.3251 4.85271L16.2706 4.84221L16.2224 4.86969L16.2967 5ZM8.86233 9.23795L8.76444 9.35159L8.84465 9.42069L8.93662 9.36826L8.86233 9.23795ZM1.34047 2.75834L1.24128 2.87088L1.24257 2.87199L1.34047 2.75834ZM1.12681 2.50425L0.996547 2.57876L0.998851 2.58252L1.12681 2.50425ZM1.06576 1.66573L0.925403 1.61281L0.925328 1.61301L1.06576 1.66573ZM2.00182 1.01525L2.00182 1.16525L2.00193 1.16525L2.00182 1.01525ZM23.9976 1.41385C23.7963 1.05914 23.4141 0.85 23.0073 0.85V1.15C23.3128 1.15 23.5919 1.30676 23.7366 1.56188L23.9976 1.41385ZM23.9911 2.55513C24.2018 2.19854 24.2022 1.76435 23.9966 1.41222L23.7376 1.5635C23.888 1.82121 23.8885 2.13914 23.7329 2.40254L23.9911 2.55513ZM13.3791 20.5754L23.9913 2.55495L23.7327 2.40272L13.1206 20.4232L13.3791 20.5754ZM12.1934 21.1353C12.6671 21.2112 13.1343 20.9889 13.3789 20.5757L13.1208 20.4229C12.9381 20.7314 12.5914 20.8953 12.2409 20.8391L12.1934 21.1353ZM11.2608 20.2319C11.3488 20.7068 11.7146 21.0595 12.1937 21.1353L12.2406 20.839C11.8854 20.7828 11.6203 20.5255 11.5557 20.1772L11.2608 20.2319ZM9.44396 10.5915L11.2609 20.2323L11.5557 20.1768L9.73877 10.5359L9.44396 10.5915ZM16.9907 6.17572L9.51711 10.4334L9.66562 10.694L17.1392 6.43639L16.9907 6.17572ZM16.2683 5.14729C16.6579 5.22236 16.839 5.31884 16.9218 5.45555C17.0072 5.59674 17.0192 5.83068 16.9186 6.27278L17.2112 6.33933C17.3119 5.8967 17.3315 5.55311 17.1784 5.30021C17.0226 5.04282 16.7191 4.92863 16.3251 4.85271L16.2683 5.14729ZM8.93662 9.36826L16.371 5.13031L16.2224 4.86969L8.78805 9.10763L8.93662 9.36826ZM1.24257 2.87199L8.76444 9.35159L8.96023 9.1243L1.43837 2.6447L1.24257 2.87199ZM0.998851 2.58252C1.06243 2.68645 1.14326 2.78447 1.24129 2.87087L1.43966 2.64581C1.36472 2.57976 1.30311 2.50499 1.25476 2.42597L0.998851 2.58252ZM0.925328 1.61301C0.80317 1.93842 0.831467 2.29004 0.996604 2.57873L1.25701 2.42977C1.13726 2.22042 1.11468 1.96222 1.20619 1.71845L0.925328 1.61301ZM2.00182 0.865246C1.51604 0.865246 1.09456 1.16414 0.925403 1.61281L1.20611 1.71865C1.33202 1.38471 1.64312 1.16525 2.00182 1.16525V0.865246ZM23.0072 0.85L2.00172 0.865246L2.00193 1.16525L23.0074 1.15L23.0072 0.85Z" fill="black"/>
</svg>
