<svg width="25" height="22" fill="none" xmlns="http://www.w3.org/2000/svg"><path fill-rule="evenodd" clip-rule="evenodd" d="M23.8671 1.48786C23.6941 1.18295 23.3634 1 23.0073 1l-21.00548.01525c-.42224 0-.78853.25917-.93606.65048-.106835.28459-.081398.5895.06105.83852.05596.09147.12718.17786.21366.25409l8.09392 6.97239L11.4083 20.2046c.0763.4116.3917.7165.8088.7826.4121.066.8191-.1271 1.0328-.4879L23.862 2.47884c.1831-.31.1831-.68606.0051-.99098ZM3.43136 2.52457H20.5349L10.2382 8.39419 3.43136 2.52457ZM12.6496 18.5072l-1.6585-8.80188 10.312-5.87469-8.6535 14.67657Z" fill="#000" stroke="#000" stroke-width=".3"/></svg>